<svg width="179" height="22" viewBox="0 0 179 22" fill="none" xmlns="http://www.w3.org/2000/svg">
<path d="M5.76862 19.5H0.793846V1.77077H6.08615L11.008 8.41261L13.6012 12.4877H13.9452L13.7071 8.62431V1.77077H18.6818V19.5H13.3895L8.15015 12.6729L5.90092 9.18H5.55692L5.76862 12.5671V19.5ZM36.0228 19.5H20.2782V1.77077H36.0228V6.24277H25.253V8.35969H35.6259V12.8052H25.253V15.028H36.0228V19.5ZM42.888 19.5H36.3784L43.0732 10.7942V10.4502L36.3784 1.77077H42.888L47.1747 7.51292H47.5187L51.5673 1.77077H58.0769L51.4086 10.556V10.9L58.0769 19.5H51.5673L47.307 13.7314H46.963L42.888 19.5ZM69.4502 19.5H64.4754V6.24277H58.204V1.77077H75.6951V6.24277H69.4502V19.5ZM81.8714 19.5H76.8966V1.77077H92.7471V6.24277H81.8714V8.88892H92.3502V13.3345H81.8714V19.5ZM109.271 19.5H94.0553V1.77077H99.03V15.028H109.271V19.5ZM120.146 19.7646C113.981 19.7646 110.329 16.1658 110.329 10.6354C110.329 5.10492 113.981 1.50615 120.146 1.50615C126.471 1.50615 130.069 5.10492 130.069 10.6354C130.069 16.1658 126.471 19.7646 120.146 19.7646ZM120.146 15.0015C123.745 15.0015 124.777 14.1548 124.777 10.6354C124.777 7.116 123.745 6.26923 120.146 6.26923C116.548 6.26923 115.621 7.116 115.621 10.6354C115.621 14.1548 116.548 15.0015 120.146 15.0015ZM141.928 19.5H134.545L130.84 1.77077H136.397L137.879 10.7942L138.355 14.7898H138.699L139.414 10.7942L141.795 1.77077H149.284L151.454 10.7942L152.089 14.7898H152.433L152.962 10.7942L154.629 1.77077H160.08L156.032 19.5H148.649L146.797 11.9055L145.632 6.34862H145.288L144.045 11.9055L141.928 19.5ZM169.714 19.7646C164.289 19.7646 160.981 17.8329 160.981 13.3345V13.1757H165.956V13.7314C165.956 14.9222 166.379 15.2397 169.714 15.2397C172.73 15.2397 173.048 15.0015 173.048 14.2077C173.048 13.5726 172.704 13.308 171.248 13.1228L165.691 12.3818C162.384 11.932 160.717 10.1591 160.717 7.30123C160.717 4.46985 162.913 1.50615 169.317 1.50615C174.953 1.50615 177.652 3.96708 177.652 7.93631V8.09508H172.677V7.69815C172.677 6.428 172.122 6.00461 168.787 6.00461C166.247 6.00461 165.691 6.34862 165.691 7.116C165.691 7.67169 166.009 7.93631 166.962 8.06862L172.518 8.88892C176.858 9.524 178.022 11.7468 178.022 14.0225C178.022 17.0655 175.694 19.7646 169.714 19.7646Z" fill="white"/>
</svg>
