<svg width="169" height="40" viewBox="0 0 169 40" fill="none" xmlns="http://www.w3.org/2000/svg">
<rect x="24.0723" y="9.7999" width="6.8" height="6.8" fill="white"/>
<rect x="17.2734" y="16.6" width="6.8" height="6.8" fill="white"/>
<rect x="17.2734" y="16.6" width="6.8" height="6.8" fill="white"/>
<rect x="24.0723" y="23.3999" width="6.8" height="6.8" fill="white"/>
<rect x="17.2734" y="30.2" width="6.8" height="6.8" fill="white"/>
<rect x="10.4727" y="30.2" width="6.8" height="6.8" fill="white"/>
<rect x="17.2734" y="2.99994" width="6.8" height="6.8" fill="white"/>
<path d="M17.2725 9.79974H10.4727V2.99994H17.2725V9.79974Z" fill="white"/>
<path d="M52.1279 28.896H51.9679C51.6052 29.8773 51.0079 30.6453 50.1759 31.2C49.3652 31.7547 48.4052 32.032 47.2959 32.032C45.1839 32.032 43.5519 31.2747 42.3999 29.76C41.2479 28.224 40.6719 26.08 40.6719 23.328C40.6719 20.576 41.2479 18.4427 42.3999 16.928C43.5519 15.392 45.1839 14.624 47.2959 14.624C48.4052 14.624 49.3652 14.9013 50.1759 15.456C51.0079 15.9893 51.6052 16.7573 51.9679 17.76H52.1279V7.968H55.6159V31.648H52.1279V28.896ZM48.3519 29.024C49.4185 29.024 50.3145 28.768 51.0399 28.256C51.7652 27.7227 52.1279 27.0293 52.1279 26.176V20.48C52.1279 19.6267 51.7652 18.944 51.0399 18.432C50.3145 17.8987 49.4185 17.632 48.3519 17.632C47.1359 17.632 46.1652 18.0267 45.4399 18.816C44.7145 19.584 44.3519 20.608 44.3519 21.888V24.768C44.3519 26.048 44.7145 27.0827 45.4399 27.872C46.1652 28.64 47.1359 29.024 48.3519 29.024Z" fill="white"/>
<path d="M70.7934 31.648C69.876 31.648 69.172 31.392 68.6814 30.88C68.1907 30.3467 67.892 29.6747 67.7854 28.864H67.6254C67.3054 29.9093 66.7187 30.6987 65.8654 31.232C65.012 31.7653 63.9774 32.032 62.7614 32.032C61.0334 32.032 59.7 31.584 58.7614 30.688C57.844 29.792 57.3854 28.5867 57.3854 27.072C57.3854 25.408 57.9827 24.16 59.1774 23.328C60.3934 22.496 62.164 22.08 64.4894 22.08H67.4974V20.672C67.4974 19.648 67.22 18.8587 66.6654 18.304C66.1107 17.7493 65.2467 17.472 64.0734 17.472C63.092 17.472 62.292 17.6853 61.6734 18.112C61.0547 18.5387 60.532 19.0827 60.1054 19.744L58.0254 17.856C58.58 16.9173 59.3587 16.1493 60.3614 15.552C61.364 14.9333 62.676 14.624 64.2974 14.624C66.452 14.624 68.1054 15.1253 69.2574 16.128C70.4094 17.1307 70.9854 18.5707 70.9854 20.448V28.8H72.7454V31.648H70.7934ZM63.7534 29.376C64.8414 29.376 65.7374 29.1413 66.4414 28.672C67.1454 28.1813 67.4974 27.5307 67.4974 26.72V24.32H64.5534C62.1427 24.32 60.9374 25.0667 60.9374 26.56V27.136C60.9374 27.8827 61.1827 28.448 61.6734 28.832C62.1854 29.1947 62.8787 29.376 63.7534 29.376Z" fill="white"/>
<path d="M78.6781 31.648C77.4621 31.648 76.5448 31.3387 75.9261 30.72C75.3075 30.08 74.9981 29.184 74.9981 28.032V17.856H72.4061V15.008H73.8141C74.3901 15.008 74.7848 14.88 74.9981 14.624C75.2328 14.368 75.3501 13.952 75.3501 13.376V10.464H78.4861V15.008H81.9741V17.856H78.4861V28.8H81.7181V31.648H78.6781Z" fill="white"/>
<path d="M95.9496 31.648C95.0323 31.648 94.3283 31.392 93.8376 30.88C93.347 30.3467 93.0483 29.6747 92.9416 28.864H92.7816C92.4616 29.9093 91.875 30.6987 91.0216 31.232C90.1683 31.7653 89.1336 32.032 87.9176 32.032C86.1896 32.032 84.8563 31.584 83.9176 30.688C83.0003 29.792 82.5416 28.5867 82.5416 27.072C82.5416 25.408 83.139 24.16 84.3336 23.328C85.5496 22.496 87.3203 22.08 89.6456 22.08H92.6536V20.672C92.6536 19.648 92.3763 18.8587 91.8216 18.304C91.267 17.7493 90.403 17.472 89.2296 17.472C88.2483 17.472 87.4483 17.6853 86.8296 18.112C86.211 18.5387 85.6883 19.0827 85.2616 19.744L83.1816 17.856C83.7363 16.9173 84.515 16.1493 85.5176 15.552C86.5203 14.9333 87.8323 14.624 89.4536 14.624C91.6083 14.624 93.2616 15.1253 94.4136 16.128C95.5656 17.1307 96.1416 18.5707 96.1416 20.448V28.8H97.9016V31.648H95.9496ZM88.9096 29.376C89.9976 29.376 90.8936 29.1413 91.5976 28.672C92.3016 28.1813 92.6536 27.5307 92.6536 26.72V24.32H89.7096C87.299 24.32 86.0936 25.0667 86.0936 26.56V27.136C86.0936 27.8827 86.339 28.448 86.8296 28.832C87.3416 29.1947 88.035 29.376 88.9096 29.376Z" fill="white"/>
<path d="M99.5761 9.312H109.464C111.32 9.312 112.771 9.83467 113.816 10.88C114.883 11.9253 115.416 13.3227 115.416 15.072C115.416 15.904 115.299 16.6187 115.064 17.216C114.829 17.792 114.531 18.272 114.168 18.656C113.805 19.0187 113.389 19.296 112.92 19.488C112.451 19.6587 111.992 19.7653 111.544 19.808V20C111.992 20.0213 112.483 20.128 113.016 20.32C113.571 20.512 114.083 20.8213 114.552 21.248C115.021 21.6533 115.416 22.1867 115.736 22.848C116.056 23.488 116.216 24.2773 116.216 25.216C116.216 26.112 116.067 26.9547 115.768 27.744C115.491 28.5333 115.096 29.216 114.584 29.792C114.072 30.368 113.464 30.8267 112.76 31.168C112.056 31.488 111.288 31.648 110.456 31.648H99.5761V9.312ZM103.192 28.544H109.4C110.339 28.544 111.075 28.2987 111.608 27.808C112.141 27.3173 112.408 26.6133 112.408 25.696V24.608C112.408 23.6907 112.141 22.9867 111.608 22.496C111.075 22.0053 110.339 21.76 109.4 21.76H103.192V28.544ZM103.192 18.752H108.792C109.688 18.752 110.381 18.528 110.872 18.08C111.363 17.6107 111.608 16.9493 111.608 16.096V15.072C111.608 14.2187 111.363 13.568 110.872 13.12C110.381 12.6507 109.688 12.416 108.792 12.416H103.192V18.752Z" fill="white"/>
<path d="M118.414 15.008H121.902V31.648H118.414V15.008Z" fill="white"/>
<path d="M129.491 31.648C128.275 31.648 127.357 31.3387 126.739 30.72C126.12 30.08 125.811 29.184 125.811 28.032V17.856H123.219V15.008H124.627C125.203 15.008 125.597 14.88 125.811 14.624C126.045 14.368 126.163 13.952 126.163 13.376V10.464H129.299V15.008H132.787V17.856H129.299V28.8H132.531V31.648H129.491Z" fill="white"/>
<path d="M140.973 32.032C139.778 32.032 138.712 31.8293 137.773 31.424C136.834 31.0187 136.034 30.4427 135.373 29.696C134.712 28.928 134.2 28.0107 133.837 26.944C133.496 25.856 133.325 24.6507 133.325 23.328C133.325 22.0053 133.496 20.8107 133.837 19.744C134.2 18.656 134.712 17.7387 135.373 16.992C136.034 16.224 136.834 15.6373 137.773 15.232C138.712 14.8267 139.778 14.624 140.973 14.624C142.189 14.624 143.256 14.8373 144.173 15.264C145.112 15.6907 145.89 16.288 146.509 17.056C147.128 17.8027 147.586 18.6773 147.885 19.68C148.205 20.6827 148.365 21.76 148.365 22.912V24.224H136.941V24.768C136.941 26.048 137.314 27.104 138.061 27.936C138.829 28.7467 139.917 29.152 141.325 29.152C142.349 29.152 143.213 28.928 143.917 28.48C144.621 28.032 145.218 27.424 145.709 26.656L147.757 28.672C147.138 29.696 146.242 30.5173 145.069 31.136C143.896 31.7333 142.53 32.032 140.973 32.032ZM140.973 17.344C140.376 17.344 139.821 17.4507 139.309 17.664C138.818 17.8773 138.392 18.176 138.029 18.56C137.688 18.944 137.421 19.4027 137.229 19.936C137.037 20.4693 136.941 21.056 136.941 21.696V21.92H144.685V21.6C144.685 20.32 144.354 19.296 143.693 18.528C143.032 17.7387 142.125 17.344 140.973 17.344Z" fill="white"/>
<path d="M155.506 32.032C153.928 32.032 152.605 31.7547 151.538 31.2C150.472 30.6453 149.544 29.8773 148.754 28.896L150.994 26.848C151.613 27.5947 152.296 28.1813 153.042 28.608C153.81 29.0133 154.696 29.216 155.698 29.216C156.722 29.216 157.48 29.024 157.97 28.64C158.482 28.2347 158.738 27.68 158.738 26.976C158.738 26.4427 158.557 25.9947 158.194 25.632C157.853 25.248 157.245 25.0027 156.37 24.896L154.834 24.704C153.128 24.4907 151.784 24 150.802 23.232C149.842 22.4427 149.362 21.28 149.362 19.744C149.362 18.9333 149.512 18.2187 149.81 17.6C150.109 16.96 150.525 16.4267 151.058 16C151.613 15.552 152.264 15.2107 153.01 14.976C153.778 14.7413 154.621 14.624 155.538 14.624C157.032 14.624 158.248 14.8587 159.186 15.328C160.146 15.7973 161 16.448 161.746 17.28L159.602 19.328C159.176 18.816 158.61 18.3787 157.906 18.016C157.224 17.632 156.434 17.44 155.538 17.44C154.578 17.44 153.864 17.632 153.394 18.016C152.946 18.4 152.722 18.9013 152.722 19.52C152.722 20.16 152.925 20.64 153.33 20.96C153.736 21.28 154.386 21.5147 155.282 21.664L156.818 21.856C158.653 22.1333 159.986 22.6773 160.818 23.488C161.672 24.2773 162.098 25.344 162.098 26.688C162.098 27.4987 161.938 28.2347 161.618 28.896C161.32 29.536 160.882 30.0907 160.306 30.56C159.73 31.0293 159.037 31.392 158.226 31.648C157.416 31.904 156.509 32.032 155.506 32.032Z" fill="white"/>
<path d="M165.995 32.032C165.206 32.032 164.619 31.8293 164.235 31.424C163.851 30.9973 163.659 30.4747 163.659 29.856V29.376C163.659 28.7573 163.851 28.2453 164.235 27.84C164.619 27.4133 165.206 27.2 165.995 27.2C166.785 27.2 167.371 27.4133 167.755 27.84C168.139 28.2453 168.331 28.7573 168.331 29.376V29.856C168.331 30.4747 168.139 30.9973 167.755 31.424C167.371 31.8293 166.785 32.032 165.995 32.032Z" fill="white"/>
</svg>
