<svg width="204" height="40" viewBox="0 0 204 40" fill="none" xmlns="http://www.w3.org/2000/svg">
<path d="M2.57617 26.8572C2.57617 24.0169 4.87868 21.7144 7.71896 21.7144V21.7144C10.5592 21.7144 12.8618 24.0169 12.8618 26.8572V26.8572C12.8618 29.6975 10.5592 32 7.71896 32V32C4.87868 32 2.57617 29.6975 2.57617 26.8572V26.8572Z" fill="white"/>
<path d="M14.8613 19.9996C14.8613 17.1594 17.1638 14.8569 20.0041 14.8569V14.8569C22.8444 14.8569 25.1469 17.1594 25.1469 19.9996V26.8567C25.1469 29.697 22.8444 31.9995 20.0041 31.9995V31.9995C17.1638 31.9995 14.8613 29.697 14.8613 26.8567V19.9996Z" fill="white"/>
<path d="M14.8613 18.2858C14.8613 15.4455 17.1638 13.143 20.0041 13.143V13.143C22.8444 13.143 25.1469 15.4455 25.1469 18.2858V18.2858C25.1469 21.126 22.8444 23.4286 20.0041 23.4286V23.4286C17.1638 23.4286 14.8613 21.126 14.8613 18.2858V18.2858Z" fill="white"/>
<path d="M27.1465 13.1428C27.1465 10.3025 29.449 8.00003 32.2893 8.00003V8.00003C35.1296 8.00003 37.4321 10.3025 37.4321 13.1428V26.8569C37.4321 29.6972 35.1296 31.9997 32.2893 31.9997V31.9997C29.449 31.9997 27.1465 29.6972 27.1465 26.8569V13.1428Z" fill="white"/>
<path d="M27.1465 13.1428C27.1465 10.3025 29.449 8.00003 32.2893 8.00003V8.00003C35.1296 8.00003 37.4321 10.3025 37.4321 13.1428V13.1428C37.4321 15.9831 35.1296 18.2856 32.2893 18.2856V18.2856C29.449 18.2856 27.1465 15.9831 27.1465 13.1428V13.1428Z" fill="white"/>
<path d="M54.5639 32H50.5959V8.608H54.5639L62.1159 27.232L69.6679 8.608H73.6999V32H69.7319V24.8C69.7319 20.096 69.7319 18.72 69.9559 17.056L64.0039 32H60.2279L54.3079 17.088C54.5319 18.496 54.5639 20.704 54.5639 23.616V32ZM81.0052 32.416C77.6452 32.416 75.5972 30.464 75.5972 27.488C75.5972 24.576 77.7092 22.752 81.4532 22.464L86.1892 22.112V21.76C86.1892 19.616 84.9092 18.752 82.9252 18.752C80.6212 18.752 79.3412 19.712 79.3412 21.376H76.0132C76.0132 17.952 78.8292 15.712 83.1172 15.712C87.3732 15.712 89.9972 18.016 89.9972 22.4V32H86.5732L86.2852 29.664C85.6132 31.296 83.4692 32.416 81.0052 32.416ZM82.2852 29.472C84.6852 29.472 86.2212 28.032 86.2212 25.6V24.768L82.9252 25.024C80.4932 25.248 79.5652 26.048 79.5652 27.328C79.5652 28.768 80.5252 29.472 82.2852 29.472ZM101.752 16.128V19.744H100.312C97.4964 19.744 95.7364 21.248 95.7364 24.32V32H91.8324V16.224H95.5124L95.7364 18.528C96.4084 16.96 97.9124 15.904 100.024 15.904C100.568 15.904 101.112 15.968 101.752 16.128ZM106.331 32H102.459V8.192H106.331V22.816L112.475 16.192H117.371L111.355 22.464L117.243 32H112.763L108.635 25.344L106.331 27.744V32ZM123.967 32.416C119.263 32.416 115.967 28.992 115.967 24.096C115.967 19.136 119.199 15.712 123.839 15.712C128.575 15.712 131.583 18.88 131.583 23.808V24.992L119.679 25.024C119.967 27.808 121.439 29.216 124.031 29.216C126.175 29.216 127.583 28.384 128.031 26.88H131.647C130.975 30.336 128.095 32.416 123.967 32.416ZM123.871 18.912C121.567 18.912 120.159 20.16 119.775 22.528H127.711C127.711 20.352 126.207 18.912 123.871 18.912ZM137.927 32H134.023V19.456H130.983V16.192H134.023V11.264H137.927V16.192H140.999V19.456H137.927V32ZM140.658 15.136C140.658 11.04 144.05 8.192 148.978 8.192C153.714 8.192 156.722 10.816 156.85 15.04H152.754C152.658 13.024 151.218 11.84 148.914 11.84C146.386 11.84 144.754 13.056 144.754 15.008C144.754 16.672 145.65 17.6 147.602 18.048L151.282 18.848C155.282 19.712 157.234 21.76 157.234 25.248C157.234 29.6 153.842 32.416 148.69 32.416C143.698 32.416 140.434 29.76 140.338 25.568H144.434C144.466 27.552 146.066 28.736 148.69 28.736C151.41 28.736 153.138 27.552 153.138 25.6C153.138 24.032 152.338 23.104 150.418 22.688L146.706 21.856C142.738 20.992 140.658 18.72 140.658 15.136ZM163.068 32.416C159.708 32.416 157.66 30.464 157.66 27.488C157.66 24.576 159.772 22.752 163.516 22.464L168.252 22.112V21.76C168.252 19.616 166.972 18.752 164.988 18.752C162.684 18.752 161.404 19.712 161.404 21.376H158.076C158.076 17.952 160.892 15.712 165.18 15.712C169.436 15.712 172.06 18.016 172.06 22.4V32H168.636L168.348 29.664C167.676 31.296 165.532 32.416 163.068 32.416ZM164.348 29.472C166.748 29.472 168.284 28.032 168.284 25.6V24.768L164.988 25.024C162.556 25.248 161.628 26.048 161.628 27.328C161.628 28.768 162.588 29.472 164.348 29.472ZM177.75 32L171.478 16.192H175.638L178.39 23.456C179.062 25.344 179.606 26.976 179.798 27.84C180.022 26.848 180.598 25.184 181.27 23.456L184.15 16.192H188.182L181.59 32H177.75ZM187.05 39.328V36.064H189.386C190.922 36.064 191.882 35.712 192.554 33.856L193.002 32.672L186.634 16.192H190.762L194.826 27.712L199.114 16.192H203.146L195.402 35.52C194.218 38.464 192.554 39.68 189.962 39.68C188.874 39.68 187.914 39.552 187.05 39.328Z" fill="white"/>
</svg>
