<svg width="145" height="40" viewBox="0 0 145 40" fill="none" xmlns="http://www.w3.org/2000/svg">
<path d="M20.6758 12L4.67578 20V28M20.6758 20L12.6758 24" stroke="white" stroke-width="2" stroke-linejoin="round"/>
<path d="M20.6758 28L4.67578 20V28L20.6758 36V28Z" stroke="white" stroke-width="2" stroke-linejoin="round"/>
<path d="M36.6758 20V12L20.6758 4V12L28.6758 16" stroke="white" stroke-width="2" stroke-linejoin="round"/>
<path d="M20.6758 20L36.6758 12V20L20.6758 28V20Z" stroke="white" stroke-width="2" stroke-linejoin="round"/>
<path d="M48.6758 27.126V8.646H62.5358V11.754H52.5398V16.346H60.4078V19.314H52.5398V24.018H62.9278V27.126H48.6758Z" fill="white"/>
<path d="M64.0025 33.006V13.126H67.4465L67.6985 17.578L67.2225 17.074C67.3905 16.2527 67.6985 15.5247 68.1465 14.89C68.6132 14.2553 69.2012 13.7607 69.9105 13.406C70.6199 13.0327 71.4132 12.846 72.2905 12.846C73.4292 12.846 74.4465 13.1353 75.3425 13.714C76.2385 14.2927 76.9385 15.1233 77.4425 16.206C77.9652 17.27 78.2265 18.5673 78.2265 20.098C78.2265 21.6287 77.9652 22.9447 77.4425 24.046C76.9199 25.1287 76.2012 25.9593 75.2865 26.538C74.3905 27.1167 73.3639 27.406 72.2065 27.406C70.9745 27.406 69.9479 27.0607 69.1265 26.37C68.3239 25.6793 67.7732 24.8113 67.4745 23.766L67.8385 23.178V33.006H64.0025ZM71.0865 24.466C72.1132 24.466 72.9159 24.102 73.4945 23.374C74.0919 22.6273 74.3905 21.5447 74.3905 20.126C74.3905 18.7073 74.1012 17.634 73.5225 16.906C72.9625 16.1593 72.1692 15.786 71.1425 15.786C70.4892 15.786 69.9105 15.9633 69.4065 16.318C68.9212 16.654 68.5385 17.1487 68.2585 17.802C67.9785 18.4367 67.8385 19.2113 67.8385 20.126C67.8385 21.0033 67.9692 21.778 68.2305 22.45C68.4919 23.1033 68.8652 23.6073 69.3505 23.962C69.8545 24.298 70.4332 24.466 71.0865 24.466Z" fill="white"/>
<path d="M81.4892 11.11C80.6866 11.11 80.0892 10.942 79.6972 10.606C79.3052 10.2513 79.1092 9.738 79.1092 9.066C79.1092 8.37534 79.3052 7.862 79.6972 7.526C80.0892 7.17134 80.6866 6.994 81.4892 6.994C82.2919 6.994 82.8892 7.17134 83.2812 7.526C83.6732 7.862 83.8692 8.37534 83.8692 9.066C83.8692 9.738 83.6732 10.2513 83.2812 10.606C82.8892 10.942 82.2919 11.11 81.4892 11.11ZM83.3932 13.126V27.126H79.5572V13.126H83.3932Z" fill="white"/>
<path d="M91.8156 12.846C93.0662 12.846 94.1209 13.0327 94.9796 13.406C95.8569 13.7607 96.5569 14.2553 97.0796 14.89C97.6209 15.506 98.0036 16.1967 98.2276 16.962L94.6436 18.25C94.4569 17.41 94.1396 16.7753 93.6916 16.346C93.2436 15.9167 92.6369 15.702 91.8716 15.702C91.1622 15.702 90.5556 15.87 90.0516 16.206C89.5476 16.5233 89.1649 17.018 88.9036 17.69C88.6422 18.3433 88.5116 19.1647 88.5116 20.154C88.5116 21.1433 88.6422 21.9647 88.9036 22.618C89.1836 23.2713 89.5756 23.7567 90.0796 24.074C90.6022 24.3913 91.2089 24.55 91.8996 24.55C92.4596 24.55 92.9356 24.4567 93.3276 24.27C93.7196 24.0647 94.0369 23.7753 94.2796 23.402C94.5409 23.0287 94.7182 22.5807 94.8116 22.058L98.2836 23.178C98.0782 24.018 97.6956 24.7553 97.1356 25.39C96.5756 26.0247 95.8569 26.5193 94.9796 26.874C94.1022 27.2287 93.0849 27.406 91.9276 27.406C90.4902 27.406 89.2209 27.1167 88.1196 26.538C87.0182 25.9593 86.1689 25.1287 85.5716 24.046C84.9742 22.9633 84.6756 21.6567 84.6756 20.126C84.6756 18.5953 84.9742 17.2887 85.5716 16.206C86.1689 15.1233 87.0089 14.2927 88.0916 13.714C89.1742 13.1353 90.4156 12.846 91.8156 12.846Z" fill="white"/>
<path d="M106.796 8.646C109.69 8.646 111.93 9.44867 113.516 11.054C115.103 12.6407 115.896 14.918 115.896 17.886C115.896 20.8353 115.103 23.1127 113.516 24.718C111.93 26.3233 109.69 27.126 106.796 27.126H99.6562V8.646H106.796ZM106.6 24.046C108.355 24.046 109.671 23.5233 110.548 22.478C111.444 21.414 111.892 19.8833 111.892 17.886C111.892 15.8887 111.444 14.3673 110.548 13.322C109.671 12.258 108.355 11.726 106.6 11.726H103.52V24.046H106.6Z" fill="white"/>
<path d="M123.885 27.406C122.411 27.406 121.123 27.1167 120.021 26.538C118.939 25.9593 118.099 25.1287 117.501 24.046C116.904 22.9633 116.605 21.6567 116.605 20.126C116.605 18.5953 116.904 17.2887 117.501 16.206C118.099 15.1233 118.929 14.2927 119.993 13.714C121.076 13.1353 122.308 12.846 123.689 12.846C125.108 12.846 126.312 13.1353 127.301 13.714C128.291 14.274 129.047 15.0487 129.569 16.038C130.092 17.0087 130.353 18.1193 130.353 19.37C130.353 19.7433 130.344 20.098 130.325 20.434C130.307 20.77 130.279 21.0687 130.241 21.33H119.069V18.67H128.561L126.713 19.342C126.713 18.166 126.443 17.2607 125.901 16.626C125.379 15.9913 124.632 15.674 123.661 15.674C122.952 15.674 122.336 15.842 121.813 16.178C121.309 16.514 120.927 17.018 120.665 17.69C120.404 18.3433 120.273 19.174 120.273 20.182C120.273 21.1713 120.413 21.9927 120.693 22.646C120.992 23.2807 121.403 23.7567 121.925 24.074C122.467 24.3913 123.111 24.55 123.857 24.55C124.679 24.55 125.341 24.3913 125.845 24.074C126.349 23.7567 126.741 23.318 127.021 22.758L130.073 23.934C129.775 24.662 129.317 25.2873 128.701 25.81C128.104 26.3327 127.385 26.734 126.545 27.014C125.724 27.2753 124.837 27.406 123.885 27.406Z" fill="white"/>
<path d="M140.351 13.126H144.327L139.007 27.126H134.583L129.263 13.126H133.379L136.823 24.186L140.351 13.126Z" fill="white"/>
</svg>
